<svg width="280" height="44" xmlns="http://www.w3.org/2000/svg" viewBox="0 0 280 44"><g fill="none"><path fill="#FFF" d="M235.6 0.4H236.6V43.699999999999996H235.6z"/><g fill="#FFF"><path d="M3.4 10H0V0h5.9v1H1.2v3.2h2.2c2 0 3.3.8 3.3 2.8v.1C6.6 9 5.4 10 3.4 10zm-.1-.9c1.5 0 2.1-.7 2.1-1.9v-.1c0-1.2-.7-1.9-2.2-1.9H1.1v3.9h2.2zM7.8 8c0-1.7 1.8-2.3 3.7-2.3h1.1v-.5c0-1.2-.4-1.7-1.6-1.7-1 0-1.6.4-1.7 1.3H8.1c.2-1.7 1.5-2.3 2.9-2.3s2.7.6 2.7 2.6V10h-1.2v-.9c-.5.7-1.2 1.1-2.3 1.1-1.4 0-2.4-.7-2.4-2.2zm4.7-.5v-.9h-1C10 6.6 9 7 9 8c0 .8.4 1.2 1.4 1.2 1.1 0 2.1-.6 2.1-1.7zM20.4 6.8L16.8 6.8 16.8 10 15.6 10 15.6 2.7 16.8 2.7 16.8 5.8 20.4 5.8 20.4 2.7 21.6 2.7 21.6 10 20.4 10zM24.7 6.3L24.7 10 23.5 10 23.5 2.7 24.7 2.7 24.7 6.1 27.7 2.7 29.1 2.7 26 6.1 29.4 10 28 10z" transform="translate(250 17)"/></g><path fill="#00BEF0" d="M21.7.5C9.7.5 0 10.2 0 22.2s9.7 21.7 21.7 21.7 21.7-9.7 21.7-21.7S33.7.5 21.7.5zm-3 30.9l-1.6 4.7c-6-2-10-7.7-10-14.1 0-6.4 4-12 10.1-14.1l1.6 4.7c-4 1.3-6.6 5.1-6.6 9.3-.2 4.4 2.5 8.2 6.5 9.5zm7.4 4.8l-1.5-4.8c4.1-1.3 6.8-5.1 6.8-9.4 0-4.3-2.7-8-6.7-9.3l1.6-4.8c6.1 2 10.2 7.7 10.2 14.1 0 6.6-4.2 12.3-10.4 14.2z"/><path fill="#FFF" d="M220.4 26.1l2.4 2.9c-2.5 2.6-5.6 3.3-8.1 3.3-2.4 0-4.1-.4-5.6-1.1-3.2-1.6-4.8-4.8-4.8-8.7 0-5.9 4-10.3 9.9-10.3 6.6 0 9.8 4.9 9.3 11.3h-15c.1 1.6 1 3.1 2.3 3.9 1.1.7 2.4 1 4.1 1 1.9 0 3.8-.6 5.5-2.3zM208.6 20h10.6c-.3-2.3-2.2-4.3-5.2-4.3-3.1 0-5 2.2-5.4 4.3zM107.9 31.7h5.4l-8.5-9.9 8.4-9.3h-5.3l-6.4 7.4h-1.9v-7.4h-4.1v19.1h4.1V24h1.9l6.4 7.7zM125.5 16c-3.5 0-5.8 2.7-5.8 6.1 0 3.4 2.3 6.1 5.8 6.1s5.7-2.6 5.7-6.1c.1-3.3-2.1-6.1-5.7-6.1zm.7-3.9c5.4 0 9.4 4.2 9.4 10 0 5.7-3.9 10.1-9.4 10.1-2.6 0-4.7-.9-6.2-2.5v10h-4.2V12.6h4.1v2.3c1.6-1.9 3.7-2.8 6.3-2.8zm54.5.5h-17.1v3.8h6.5v15.3h4.2V16.4h6.5v-3.8h-.1zm-88.1 0H75.4v3.8h6.5v15.3h4.2V16.4h6.5v-3.8zm-22.2 9.6c0-3.6-2.5-6.2-6-6.2-3.4 0-6 2.6-6 6.2s2.5 6.2 6 6.2c3.4 0 6-2.6 6-6.2zm-16.3 0c0-5.7 4.4-10 10.3-10 5.8 0 10.3 4.3 10.3 10s-4.4 10.1-10.3 10.1c-5.8-.1-10.3-4.4-10.3-10.1zM201 12.6v19.1h-4.1V19.4l-10 12.3h-3.3V12.6h4.1v12.3l10-12.3h3.3zm-40.3 19.1h-4.1V12.6h4.1v19.1zm-10.6-6.5c0-1.7-1.2-2.9-2.8-2.9h-4.2v5.9h4.2c1.6 0 2.8-1.3 2.8-3zm4.1 0c0 3.8-2.8 6.5-6.8 6.5H139V12.6h4.1v6.2h4.7c4 0 6.4 2.6 6.4 6.4z"/></g></svg>
